# xmcd CD database file
#
# Track frame offsets:
#	150
#	15502
#	16852
#	31707
#	34005
#	34525
#	49399
#	49858
#	52281
#	68266
#	83908
#	96572
#	108299
#	121438
#	137070
#	155585
#	172837
#	187249
#	195265
#	215684
#
# Disc length: 2880 seconds
#
# Revision: 0
# Processed by: cddbd v1.4PL0 Copyright (c) Steve Scherf et al.
# Submitted via: Feurio! 1.64 - http://www.feurio.com
#
DISCID=0c0b3e14
DTITLE=Various Artist - Otti`s Geburtstags-CD
DYEAR=248
DGENRE=
TTITLE0=Nina and Mike - Paloma Blanca
TTITLE1=Silke and Brummsi - Geburtstagsgruß
TTITLE2=Cornelia Froboess - Pack die Badehose ein
TTITLE3=Timmi - Geburtstagsständchen
TTITLE4=? - Applaus
TTITLE5=Ibo - Ibiza
TTITLE6=? - Heute
TTITLE7=Costa - Ansage
TTITLE8=Chris Wolf - Palma de Mallorca
TTITLE9=Die Flippers - Die rote Sonne von Barbados
TTITLE10=Anja and Rainer - Du bist die Rose vom Wörthersee
TTITLE11=Rainer Bertram - Itsy-Bitsy-Teenie-Weenie-Honolulu-Strand-Bekini
TTITLE12=France Gall - A Banda
TTITLE13=Roy Black and Anita - Schön ist es auf der Welt zu sein
TTITLE14=Chris Wolf - Summer Medley
TTITLE15=Kastelruther Spatzen - Atlantis der Berge
TTITLE16=Stefanie Hertel - Ein Lied für jeden Sonnenstrahl
TTITLE17=Schmidtchen Schleicher - Bodo Ballermann and die Bumsköppe
TTITLE18=Horst Chmela - Her mit meinen Hennen (der Gockola...)
TTITLE19=Hummel - Abschlußgruß
EXTD=
EXTT0=
EXTT1=
EXTT2=
EXTT3=
EXTT4=
EXTT5=
EXTT6=
EXTT7=
EXTT8=
EXTT9=
EXTT10=
EXTT11=
EXTT12=
EXTT13=
EXTT14=
EXTT15=
EXTT16=
EXTT17=
EXTT18=
EXTT19=
PLAYORDER=
